<?xml version="1.0" encoding="utf-8"?>
<!-- Generator: Adobe Illustrator 25.2.0, SVG Export Plug-In . SVG Version: 6.00 Build 0)  -->
<svg version="1.1" id="Layer_1" xmlns="http://www.w3.org/2000/svg" xmlns:xlink="http://www.w3.org/1999/xlink" x="0px" y="0px"
	 viewBox="0 0 512 512" style="enable-background:new 0 0 512 512;" xml:space="preserve">
<style type="text/css">
	.st0{fill:#FFC57D;}
</style>
<path class="st0" d="M461.5,90.7c-2.8-35.6-32.6-63.8-68.9-63.8H69.1C31,26.9,0,57.9,0,96V416c0,38.1,31,69.1,69.1,69.1h373.7
	c38.1,0,69.1-31,69.1-69.1V157.2C512,125.6,490.6,98.8,461.5,90.7L461.5,90.7z M69.1,59.2h323.5c17.6,0,32.3,12.4,36,28.9H69.1
	C55.6,88.1,43,92,32.3,98.8V96C32.3,75.7,48.8,59.2,69.1,59.2z M442.9,452.8H69.1c-20.3,0-36.8-16.5-36.8-36.8V157.2
	c0-20.3,16.5-36.8,36.8-36.8h373.7c20.3,0,36.8,16.5,36.8,36.8v56.4h-103c-40.8,0-74,33.2-74,74c0,40.8,33.2,74,74,74h103V416
	C479.7,436.3,463.2,452.8,442.9,452.8L442.9,452.8z M479.7,329.3h-103c-23,0-41.7-18.7-41.7-41.7c0-23,18.7-41.7,41.7-41.7h103
	V329.3z"/>
<circle class="st0" cx="382.7" cy="288.8" r="16.8"/>
</svg>
